<svg height="512" viewBox="0 0 512 512" width="512" xmlns="http://www.w3.org/2000/svg"><g id="flat"><path d="m88 136h-16v-24a48 48 0 0 1 96 0v8h-16v-8a32 32 0 0 0 -64 0z" fill="#cbcbcb"/><path d="m452 424h-68a8 8 0 0 1 0-16h68a28 28 0 0 0 0-56h-92a8 8 0 0 1 0-16h92a44 44 0 0 1 0 88z" fill="#cbcbcb"/><rect fill="#d18d28" height="344" rx="12" width="256" x="120" y="112"/><path d="m292 96h-28v-16a16 16 0 0 0 -32 0v16h-28a12 12 0 0 0 -12 12v36h112v-36a12 12 0 0 0 -12-12z" fill="#c1e3f7"/><path d="m152 144h192v280h-192z" fill="#e4e4e2"/><g fill="#cbcbcb"><path d="m184 280h32v32h-32z"/><path d="m184 344h32v32h-32z"/><path d="m240 240h80v16h-80z"/><path d="m240 288h24v16h-24z"/><path d="m280 288h40v16h-40z"/><path d="m240 368h40v16h-40z"/><path d="m240 336h48v16h-48z"/><path d="m304 336h16v16h-16z"/></g><path d="m200 256a8 8 0 0 1 -5.657-2.343l-16-16a8 8 0 0 1 11.314-11.314l9.477 9.477 18.466-24.62a8 8 0 1 1 12.8 9.6l-24 32a8 8 0 0 1 -5.833 3.179q-.285.021-.567.021z" fill="#f55648"/><path d="m264 176h-8v-8h-16v8h-8v16h8v8h16v-8h8z" fill="#029532"/><path d="m64 336a32.036 32.036 0 0 1 -32-32v-48a8 8 0 0 1 16 0v48a16.019 16.019 0 0 0 16 16 8 8 0 0 1 0 16z" fill="#e4e4e2"/><path d="m96 336a8 8 0 0 1 0-16 16.019 16.019 0 0 0 16-16v-48a8 8 0 0 1 16 0v48a32.036 32.036 0 0 1 -32 32z" fill="#e4e4e2"/><path d="m96 170.332v-34.332h-32v34.332a56.04 56.04 0 0 0 -40 53.668v32h32v-32a24 24 0 0 1 48 0v32h32v-32a56.016 56.016 0 0 0 -40-53.668z" fill="#007af6"/><circle cx="360" cy="416" fill="#007af6" r="40"/><circle cx="360" cy="416" fill="#8ed2ff" r="16"/><path d="m192 144h112v16h-112z" fill="#cbcbcb"/></g></svg>