<svg id="Layer_1" enable-background="new 0 0 512 512" height="512" viewBox="0 0 512 512" width="512" xmlns="http://www.w3.org/2000/svg"><g><path d="m113.016 465.956c34.508 24.843 75.737 40.923 120.441 45.002h45.086c44.704-4.079 85.933-20.159 120.441-45.002l58.689-59.83c27.316-39.52 43.329-87.45 43.329-139.128 0-135.311-109.691-245.002-245.002-245.002s-245.002 109.691-245.002 245.002c0 51.677 16.014 99.607 43.329 139.128z" fill="#73c3f9"/><path d="m102.785 458.171h306.43c15.134-12.145 28.795-26.046 40.673-41.401v-387.465c0-11.836-9.684-21.519-21.52-21.519h-344.736c-11.836 0-21.52 9.684-21.52 21.519v387.465c11.878 15.355 25.539 29.256 40.673 41.401z" fill="#ffdd40"/><path d="m83.632 7.785c-11.836 0-21.52 9.684-21.52 21.519v387.466c11.878 15.354 25.538 29.255 40.673 41.4h107.827c.029-2.316.969-4.29 1.886-5.67.933-1.403.943-3.199.04-4.622-12.266-19.335-2.526-37.425.466-42.145.517-.815.743-1.774.646-2.735l-4.714-46.911c-.122-1.218-.772-2.311-1.749-3.049-10.233-7.732-5.799-18.285-4.303-21.173.286-.552.44-1.163.469-1.784l.221-4.707c.007-.143.007-.278-.001-.42-.088-1.693-.761-13.018-3.073-15.33-1.832-1.832-7.355-3.932-10.177-4.924-1.098-.386-1.986-1.198-2.475-2.254l-1.852-4.002c-.751-1.623-.422-3.54.826-4.821l1.313-1.346c.939-.963 2.273-1.433 3.608-1.27l7.373.898c2.587.315 4.86-1.719 4.833-4.325l-.04-3.82c-.008-.718-.204-1.42-.547-2.051-8.849-16.279-1.871-27.9 2.213-32.726 1.223-1.446 1.321-3.48.33-5.094-2.227-3.626-1.496-6.896-.322-9.165.971-1.876.548-4.166-1.116-5.467-8.962-7.008-5.192-16.88-4.487-18.506.062-.143.127-.27.204-.405 1.298-2.26 14.921-25.984 21.9-38.551 5.5-9.903 14.906-11.874 19.265-12.241 1.508-.127 2.827-1.064 3.485-2.427l20.131-41.684c.399-.825.53-1.762.352-2.661-2.374-12.012 7.034-17.466 12.019-19.474 1.576-.635 2.645-2.118 2.719-3.816.232-5.311 4.128-7.543 7.294-8.481 2.163-.641 3.477-2.841 2.985-5.042-7.271-32.505 6.669-51.427 12.764-57.879 1.356-1.435 1.492-3.572.456-5.253-1.109-1.798-1.513-3.505-1.506-5.054h-218.416z" fill="#ffb332"/><path d="m368.401 224.809-104.283-175.065c-3.664-6.151-12.571-6.151-16.235 0l-104.283 175.065c-3.752 6.298.787 14.284 8.118 14.284h208.566c7.33 0 11.868-7.986 8.117-14.284z" fill="#ffb332"/><path d="m264.118 49.744c-3.664-6.151-12.571-6.151-16.235 0l-104.283 175.065c-3.752 6.298.786 14.284 8.117 14.284h52.751c-.004-1.674.49-3.163 1.114-4.369.971-1.876.548-4.166-1.116-5.467-8.962-7.008-5.192-16.88-4.487-18.506.062-.143.127-.27.204-.405 1.298-2.26 14.921-25.984 21.9-38.551 5.5-9.903 14.906-11.874 19.265-12.241 1.508-.127 2.827-1.064 3.485-2.427l20.131-41.684c.399-.825.53-1.762.352-2.661-2.374-12.012 7.034-17.466 12.019-19.474 1.576-.635 2.645-2.118 2.719-3.816.146-3.337 1.738-5.457 3.688-6.806z" fill="#ff9100"/><g><path d="m360.283 246.878h-208.566c-13.368 0-21.655-14.554-14.805-26.053l104.283-175.065c6.678-11.212 22.923-11.229 29.611 0l104.283 175.065c6.842 11.485-1.422 26.053-14.806 26.053zm-105.712-193.15-104.283 175.065c-.667 1.119.134 2.515 1.429 2.515h208.566c1.302 0 2.094-1.4 1.429-2.515l-104.282-175.065c-.647-1.086-2.208-1.093-2.859 0z" fill="#3c58a0"/></g><path d="m241.195 45.76-104.284 175.065c-6.85 11.498 1.438 26.053 14.805 26.053h54.8c.152-1.009-.047-2.066-.613-2.988-2.227-3.626-1.496-6.896-.322-9.165.566-1.092.645-2.32.295-3.416h-54.16c-1.295 0-2.096-1.396-1.429-2.515l104.284-175.065c.651-1.094 2.212-1.087 2.859 0l22.24 37.335c.22-.487.36-1.015.384-1.57.232-5.311 4.128-7.543 7.294-8.481 1.373-.407 2.399-1.444 2.843-2.709l-19.385-32.544c-6.689-11.229-22.933-11.211-29.611 0z" fill="#2a428c"/><ellipse cx="256" cy="198.214" fill="#2a428c" rx="12.307" ry="12.307" transform="matrix(.231 -.973 .973 .231 4.017 401.511)"/><path d="m256 109.459c-6.797 0-12.307 5.51-12.307 12.307v37.723c0 6.797 5.51 12.307 12.307 12.307s12.307-5.51 12.307-12.307v-37.723c0-6.797-5.51-12.307-12.307-12.307z" fill="#3c58a0"/><path d="m256 146.463c-6.797 0-12.307-5.51-12.307-12.307v25.333c0 6.797 5.51 12.307 12.307 12.307s12.307-5.51 12.307-12.307v-25.333c0 6.797-5.51 12.307-12.307 12.307z" fill="#2a428c"/><path d="m233.457 510.958c7.425.677 14.941 1.042 22.543 1.042s15.118-.365 22.543-1.042v-52.787h-45.086z" fill="#d34e3c"/><path d="m255.583 492.368c0-8.195 6.644-14.839 14.839-14.839h8.121v-19.359h-45.086v52.787c7.289.665 14.667 1.024 22.126 1.037z" fill="#b53921"/><path d="m418.442 450.386h-324.884c6.213 5.508 12.705 10.708 19.458 15.57h285.968c6.753-4.862 13.245-10.062 19.458-15.57z" fill="#3c58a0"/><path d="m213.191 450.386h-119.633c6.213 5.508 12.705 10.708 19.458 15.57h100.401c-.115-.669-.376-1.317-.788-1.887-3.463-4.793-1.761-9.116-.132-11.568.43-.647.655-1.377.694-2.115z" fill="#2a428c"/><path d="m457.673 406.125v-376.821c0-16.158-13.146-29.304-29.304-29.304h-344.738c-16.158 0-29.304 13.146-29.304 29.304v376.821c4.844 7.009 10.04 13.755 15.57 20.208v-397.029c0-7.573 6.161-13.735 13.734-13.735h344.737c7.573 0 13.734 6.161 13.734 13.735v397.029c5.531-6.452 10.727-13.199 15.571-20.208z" fill="#3c58a0"/><path d="m304.86 0h-221.229c-16.158 0-29.304 13.146-29.304 29.304v376.821c4.844 7.009 10.04 13.755 15.57 20.208v-397.029c0-7.573 6.161-13.735 13.734-13.735h220.589c.077-.927-.147-1.887-.667-2.731-2.88-4.672-1.04-8.737.569-10.982.403-.56.643-1.198.738-1.856z" fill="#2a428c"/><path d="m259.076 332.441c3.171 1.209 6.72-.384 7.928-3.554l2.31-6.065h16.142l2.282 6.048c.929 2.46 3.266 3.976 5.749 3.976.72 0 1.454-.128 2.168-.398 3.174-1.198 4.777-4.742 3.579-7.917l-15.186-40.241c-.022-.057-.044-.113-.067-.169-1.095-2.661-3.66-4.378-6.536-4.378h-.008c-2.88.003-5.445 1.727-6.535 4.392-.019.046-.038.093-.055.139l-15.326 40.239c-1.207 3.171.384 6.72 3.555 7.928zm21.743-21.906h-6.826l3.429-9.003z" fill="#3c58a0"/><path d="m212.323 319.376c1.09-6.106-1.629-14.063-12.53-18.083-4.83-1.782-9.34-3.718-10.911-4.404-.578-.534-.586-1.225-.53-1.617.075-.522.47-1.804 2.515-2.42 5.187-1.564 10.1 2.269 10.274 2.407 2.597 2.146 6.444 1.802 8.617-.782 2.183-2.597 1.847-6.472-.75-8.656-.403-.338-10-8.255-21.685-4.735-6.027 1.816-10.293 6.582-11.134 12.439-.793 5.521 1.602 10.834 6.249 13.863.272.178.557.333.853.465.238.106 5.888 2.621 12.25 4.967 2.481.916 5.016 2.551 4.686 4.396-.272 1.526-2.401 3.782-6.104 3.782-3.767 0-7.383-1.507-9.67-4.032-2.278-2.514-6.163-2.705-8.678-.427-2.514 2.278-2.705 6.164-.427 8.678 4.646 5.128 11.49 8.068 18.775 8.068 9.107 0 16.761-5.85 18.2-13.909z" fill="#2a428c"/><path d="m313.023 307.673-.047 19.011c-.008 3.393 2.735 6.151 6.128 6.159h.016c3.386 0 6.135-2.741 6.143-6.128l.047-19.033 11.94-18.341c1.851-2.844 1.046-6.649-1.797-8.5-2.843-1.85-6.65-1.047-8.501 1.797l-7.789 11.966-7.885-12.076c-1.855-2.841-5.662-3.639-8.503-1.785-2.841 1.856-3.64 5.662-1.785 8.503z" fill="#3c58a0"/><path d="m246.717 280.184h-22.54c-3.393 0-6.144 2.75-6.144 6.143s2.751 6.144 6.144 6.144h5.081v34.67c0 3.393 2.751 6.144 6.144 6.144s6.144-2.75 6.144-6.144v-34.67h5.172c3.393 0 6.144-2.75 6.144-6.144-.001-3.393-2.752-6.143-6.145-6.143z" fill="#3c58a0"/><path d="m136.703 355.975c-.018-.047-.036-.094-.055-.14-1.09-2.665-3.656-4.39-6.536-4.392h-.006c-2.877 0-5.443 1.719-6.537 4.38-.023.056-.045.111-.066.167l-15.187 40.241c-1.198 3.175.404 6.72 3.579 7.917 3.175 1.199 6.719-.404 7.917-3.578l2.282-6.048h16.142l2.31 6.064c.934 2.452 3.267 3.959 5.742 3.959.727 0 1.466-.13 2.185-.404 3.171-1.208 4.762-4.757 3.555-7.927zm-9.972 26.26 3.397-9.002 3.428 9.002z" fill="#2a428c"/><path d="m183.373 351.884h-22.54c-3.393 0-6.143 2.75-6.143 6.144 0 3.393 2.751 6.143 6.143 6.143h5.172v34.67c0 3.393 2.751 6.144 6.144 6.144s6.143-2.75 6.143-6.144v-34.67h5.081c3.393 0 6.144-2.75 6.144-6.143-.001-3.394-2.751-6.144-6.144-6.144z" fill="#2a428c"/><g fill="#3c58a0"><path d="m359.848 357.098c-.64-3.143-3.324-5.464-6.526-5.644-3.194-.174-6.129 1.824-7.118 4.875-.023.07-.044.14-.064.211l-6.326 22.192-6.565-22.253c-.022-.074-.045-.146-.069-.219-1.022-3.041-3.964-5.009-7.171-4.799-3.2.215-5.858 2.565-6.478 5.784l-7.173 39.745c-.603 3.339 1.616 6.535 4.955 7.137 3.339.601 6.535-1.615 7.137-4.955l3.258-18.054 5.426 18.392c.021.073.044.145.068.217.968 2.885 3.657 4.817 6.698 4.817h.036c3.055-.016 5.742-1.979 6.685-4.885.023-.07.044-.141.065-.212l5.237-18.371 3.47 18.159c.637 3.333 3.854 5.528 7.188 4.88 3.333-.637 5.518-3.855 4.881-7.187z"/><path d="m242.05 351.442c-3.393 0-6.144 2.75-6.144 6.143v13.564h-15.957v-13.564c0-3.393-2.751-6.143-6.143-6.143-3.393 0-6.144 2.75-6.144 6.143v40.815c0 3.393 2.751 6.143 6.144 6.143s6.143-2.75 6.143-6.143v-14.964h15.957v14.964c0 3.393 2.751 6.143 6.144 6.143s6.144-2.75 6.144-6.143v-40.815c-.001-3.392-2.751-6.143-6.144-6.143z"/><path d="m397.937 392.07h-10.897v-7.934h9.641c3.393 0 6.143-2.75 6.143-6.143s-2.751-6.144-6.143-6.144h-9.641v-7.934h10.897c3.393 0 6.144-2.75 6.144-6.143s-2.751-6.144-6.144-6.144h-17.04c-3.393 0-6.144 2.75-6.144 6.144v40.442c0 3.393 2.751 6.143 6.144 6.143h17.04c3.393 0 6.144-2.75 6.144-6.143-.001-3.393-2.751-6.144-6.144-6.144z"/><path d="m281.758 351.442c-14.64 0-26.551 11.91-26.551 26.551s11.911 26.551 26.551 26.551 26.55-11.91 26.55-26.551-11.91-26.551-26.55-26.551zm0 40.815c-7.865 0-14.264-6.399-14.264-14.264s6.399-14.264 14.264-14.264 14.263 6.399 14.263 14.264-6.399 14.264-14.263 14.264z"/></g></g></svg>