<svg height="512" viewBox="0 0 64 64" width="512" xmlns="http://www.w3.org/2000/svg"><g id="Hand_Wash-Hygiene-Soap-Cleaning-Hands" data-name="Hand Wash-Hygiene-Soap-Cleaning-Hands"><path d="m35 32h26v18h-26z" fill="#e6e7e8"/><path d="m61 50v9a2.006 2.006 0 0 1 -2 2h-22a2.006 2.006 0 0 1 -2-2v-9z" fill="#5aaae7"/><path d="m61 25v7h-26v-7a4 4 0 0 1 4-4h18a4 4 0 0 1 4 4z" fill="#5aaae7"/><path d="m54 17v4h-12v-4h2 8z" fill="#acabb1"/><path d="m52 7v10h-8v-3-4-3h1 6z" fill="#898890"/><path d="m45 3h6v4h-6z" fill="#d8d7da"/><path d="m44 10v4h-10l-6.06 3.5-2-3.46 6.99-4.04z" fill="#acabb1"/><path d="m35 56 2-.73 8.99-3.27 2.72-.99a3.032 3.032 0 0 0 1.36-1.01h-15.07z" fill="#3d9ae2"/><path d="m50.42 46.96a3.118 3.118 0 0 0 -3.92-1.53l-9.5 3.45-.67.25a2.966 2.966 0 0 0 .03-.42 3.023 3.023 0 0 0 -1.36-2.5v3.79h15.07a2.973 2.973 0 0 0 .35-3.04z" fill="#d8d7da"/><path d="m48.4 47.46a3.006 3.006 0 0 1 -1.69 1.55l-2.72.99-8.99 3.27-6.57 2.39a12.009 12.009 0 0 1 -4.93.7l-4.75-.33a12 12 0 0 0 -4.93.69l-3.25 1.18-4.44-12.21.44-.35a16.152 16.152 0 0 1 4.47-2.51l1.56-.56a13.965 13.965 0 0 1 7.22-.63l12.06 2.12a3.015 3.015 0 0 1 2.48 2.95 2.966 2.966 0 0 1 -.03.42l.67-.25 9.5-3.45a3.118 3.118 0 0 1 3.92 1.53 2.987 2.987 0 0 1 -.02 2.5z" fill="#ffc477"/><path d="m29 32a4 4 0 0 1 -8 0c0-2.21 4-8 4-8s4 5.79 4 8z" fill="#5aaae7"/><circle cx="15" cy="20" fill="#78b9eb" r="2"/><path d="m11.26 59.78-3.35 1.22h-4.91v-16.3l2.44-.89.69 1.88 4.44 12.21z" fill="#3d9ae2"/><circle cx="9" cy="30" fill="#78b9eb" r="2"/><path d="m49.307 47.878a4 4 0 0 0 .025-3.328 4.108 4.108 0 0 0 -5.176-2.062l-8.93 3.25a4 4 0 0 0 -3.174-2.959l-12.063-2.127a15.044 15.044 0 0 0 -7.735.677l-1.554.571a16.936 16.936 0 0 0 -4.1 2.179l-.221-.607a1 1 0 0 0 -1.281-.6l-3.271 1.188.683 1.88 2.335-.85 5.13 14.1-3.317 1.203.684 1.879 4.258-1.549a1 1 0 0 0 .6-1.282l-.342-.94 2.305-.838a10.9 10.9 0 0 1 4.523-.638l4.744.329a12.931 12.931 0 0 0 5.345-.753l18.28-6.653a3.975 3.975 0 0 0 2.252-2.07zm-2.94.19-18.28 6.654a10.968 10.968 0 0 1 -4.522.637l-4.745-.329a12.91 12.91 0 0 0 -5.344.753l-2.306.839-3.855-10.593a14.948 14.948 0 0 1 4.07-2.255l1.552-.565a13.014 13.014 0 0 1 6.7-.587l12.063 2.127a2 2 0 1 1 -.694 3.939l-10.833-1.91-.348 1.97 10.833 1.91a3.982 3.982 0 0 0 4.506-2.77l9.672-3.521a2.13 2.13 0 0 1 2.667 1 2.01 2.01 0 0 1 -.013 1.666 1.984 1.984 0 0 1 -1.123 1.035z"/><path d="m57 20h-2v-3a1 1 0 0 0 -1-1h-1v-9a1 1 0 0 0 -1-1v-3a1 1 0 0 0 -1-1h-6a1 1 0 0 0 -1 1v3a1 1 0 0 0 -1 1v2h-10.07a1 1 0 0 0 -.5.134l-6.991 4.04a1 1 0 0 0 -.365 1.367l2 3.459a1 1 0 0 0 1.366.366l5.828-3.366h8.732v1h-1a1 1 0 0 0 -1 1v3h-2a5.006 5.006 0 0 0 -5 5v17h2v-9h24v16h-10v2h10v8a1 1 0 0 1 -1 1h-22a1 1 0 0 1 -1-1v-3h-2v3a3 3 0 0 0 3 3h22a3 3 0 0 0 3-3v-34a5.006 5.006 0 0 0 -5-5zm-11-16h4v2h-4zm-12 9a1 1 0 0 0 -.5.134l-5.194 3-1-1.729 5.894-3.405h9.8v2zm11 1v-6h6v8h-6zm-2 4h10v2h-10zm-7 13v-6a3 3 0 0 1 3-3h18a3 3 0 0 1 3 3v6z"/><path d="m25 37a5.006 5.006 0 0 0 5-5c0-2.4-3.479-7.559-4.177-8.568a1.038 1.038 0 0 0 -1.646 0c-.698 1.009-4.177 6.168-4.177 8.568a5.006 5.006 0 0 0 5 5zm0-11.192c1.439 2.249 3 5.1 3 6.192a3 3 0 0 1 -6 0c0-1.092 1.561-3.943 3-6.192z"/><path d="m6 30a3 3 0 1 0 3-3 3 3 0 0 0 -3 3zm3-1a1 1 0 1 1 -1 1 1 1 0 0 1 1-1z"/><path d="m15 23a3 3 0 1 0 -3-3 3 3 0 0 0 3 3zm0-4a1 1 0 1 1 -1 1 1 1 0 0 1 1-1z"/><path d="m4 17h2v-2h2v-2h-2v-2h-2v2h-2v2h2z"/></g></svg>